<?xml version="1.0" encoding="utf-8"?>
<!-- Generator: Adobe Illustrator 22.1.0, SVG Export Plug-In . SVG Version: 6.00 Build 0)  -->
<svg version="1.1" id="Layer_1" xmlns="http://www.w3.org/2000/svg" xmlns:xlink="http://www.w3.org/1999/xlink" x="0px" y="0px"
	 viewBox="0 0 1366 768" style="enable-background:new 0 0 1366 768;" xml:space="preserve">
<style type="text/css">
	.st0{fill:#D9E021;}
	.st1{fill:url(#SVGID_1_);}
	.st2{fill:url(#SVGID_2_);}
	.st3{fill:none;}
	.st4{font-family:'Futura-Medium';}
	.st5{font-size:90px;}
</style>
<g>
	<circle class="st0" cx="635.5" cy="428.5" r="84.5"/>
</g>
<linearGradient id="SVGID_1_" gradientUnits="userSpaceOnUse" x1="-188.4564" y1="263.3282" x2="104.0969" y2="263.3282" gradientTransform="matrix(-1.1726 -0.8653 1.2752 -1.728 294.7586 751.5403)">
	<stop  offset="0" style="stop-color:#CCE0F4"/>
	<stop  offset="6.405089e-02" style="stop-color:#C3DCF2"/>
	<stop  offset="0.1706" style="stop-color:#A9D2EE"/>
	<stop  offset="0.3066" style="stop-color:#80C2E7"/>
	<stop  offset="0.4649" style="stop-color:#47ACDE"/>
	<stop  offset="0.5674" style="stop-color:#1E9CD7"/>
	<stop  offset="0.8652" style="stop-color:#0075BE"/>
	<stop  offset="0.9944" style="stop-color:#005B97"/>
</linearGradient>
<path class="st1" d="M679.9,684.5C67.2,324.8,768.4,39.2,768.4,39.2S452.9,494.5,684,686.6l-1.1-1.7
	C681.8,685.2,680.8,685,679.9,684.5z"/>
<linearGradient id="SVGID_2_" gradientUnits="userSpaceOnUse" x1="681.1538" y1="48.8514" x2="899.5787" y2="48.8514" gradientTransform="matrix(-1.37 -1.6319 1.6218 -0.4607 1839.2416 1775.7236)">
	<stop  offset="0" style="stop-color:#FFFFFF"/>
	<stop  offset="1" style="stop-color:#000000"/>
</linearGradient>
<path class="st2" d="M1119.3,408.6c-279.7,632.5-688.2-51.1-688.2-51.1s523.1,291.3,687.4,50.7L1119.3,408.6z"/>
<rect x="741" y="157" class="st3" width="636" height="324"/>
<text transform="matrix(1 0 0 1 741 231.2222)"><tspan x="0" y="0" class="st0 st4 st5">The </tspan><tspan x="0" y="88" class="st0 st4 st5">Ongoing </tspan><tspan x="0" y="176" class="st0 st4 st5">Now</tspan></text>
</svg>
